<svg width="720" height="1024" viewBox="0 0 720 1024" fill="none" xmlns="http://www.w3.org/2000/svg">
<g clip-path="url(#clip0_79_730)">
<rect width="720" height="1024" fill="#070707"/>
<path opacity="0.38" d="M681.955 676.045C772.555 498.234 701.856 280.644 524.044 190.045C346.233 99.4454 128.644 170.145 38.0445 347.956C-52.5548 525.767 18.1444 743.356 195.955 833.956C373.767 924.555 591.356 853.856 681.955 676.045Z" stroke="url(#paint0_linear_79_730)" stroke-width="8" stroke-linecap="round" stroke-dasharray="28 17"/>
<path opacity="0.39" d="M455.071 843.553C638.183 791.047 744.06 600.04 691.553 416.929C639.047 233.817 448.04 127.94 264.929 180.447C81.8169 232.953 -24.0596 423.959 28.4468 607.071C80.9533 790.183 271.96 896.06 455.071 843.553Z" stroke="url(#paint1_linear_79_730)" stroke-width="7" stroke-linecap="round" stroke-dasharray="14 38"/>
<path opacity="0.27" d="M638.575 337.927C542.437 184.074 339.779 137.287 185.927 233.425C32.0736 329.562 -14.7136 532.22 81.4244 686.073C177.562 839.926 380.22 886.713 534.073 790.575C687.926 694.437 734.713 491.78 638.575 337.927Z" stroke="url(#paint2_linear_79_730)" stroke-width="7" stroke-linecap="round" stroke-dasharray="20 31"/>
<path opacity="0.77" d="M647.258 633.934C714.6 475.286 640.582 292.084 481.934 224.742C323.286 157.4 140.084 231.418 72.7423 390.066C5.40019 548.714 79.4183 731.916 238.067 799.258C396.715 866.6 579.916 792.582 647.258 633.934Z" stroke="url(#paint3_linear_79_730)" stroke-width="7" stroke-linecap="round" stroke-dasharray="41 35"/>
<path opacity="0.71" d="M69.7905 455.589C38.6356 615.867 143.311 771.054 303.589 802.209C463.867 833.364 619.054 728.689 650.209 568.411C681.364 408.133 576.689 252.946 416.411 221.791C256.133 190.636 100.945 295.311 69.7905 455.589Z" stroke="url(#paint4_linear_79_730)" stroke-width="6" stroke-linecap="round" stroke-dasharray="20 22"/>
<path opacity="0.12" d="M512.072 746.171C641.401 662.183 678.158 489.257 594.171 359.928C510.183 230.599 337.256 193.842 207.928 277.829C78.5986 361.816 41.8419 534.743 125.829 664.072C209.816 793.401 382.743 830.158 512.072 746.171Z" stroke="url(#paint5_linear_79_730)" stroke-width="6" stroke-linecap="round" stroke-dasharray="47 33"/>
<path opacity="0.85" d="M471.06 750.17C602.598 688.833 659.507 532.477 598.17 400.939C536.833 269.401 380.477 212.492 248.939 273.829C117.401 335.167 60.4921 491.523 121.829 623.061C183.166 754.599 339.523 811.508 471.06 750.17Z" stroke="url(#paint6_linear_79_730)" stroke-width="6" stroke-linecap="round" stroke-dasharray="22 14"/>
<path opacity="0.92" d="M115.469 481.976C98.8865 617.026 194.924 739.949 329.975 756.531C465.026 773.113 587.949 677.076 604.531 542.025C621.113 406.974 525.075 284.051 390.024 267.469C254.974 250.887 132.051 346.925 115.469 481.976Z" stroke="url(#paint7_linear_79_730)" stroke-width="6" stroke-linecap="round" stroke-dasharray="20 33"/>
<path opacity="0.97" d="M574.67 594.404C620.181 475.845 560.963 342.84 442.404 297.33C323.845 251.819 190.84 311.037 145.33 429.596C99.8189 548.155 159.036 681.16 277.596 726.67C396.155 772.181 529.16 712.963 574.67 594.404Z" stroke="url(#paint8_linear_79_730)" stroke-width="5" stroke-linecap="round" stroke-dasharray="42 30"/>
<path opacity="0.29" d="M429.515 713.886C541.013 675.494 600.278 553.983 561.886 442.485C523.494 330.987 401.984 271.722 290.485 310.114C178.987 348.506 119.722 470.016 158.114 581.515C196.506 693.013 318.017 752.278 429.515 713.886Z" stroke="url(#paint9_linear_79_730)" stroke-width="5" stroke-linecap="round" stroke-dasharray="53 13"/>
<path opacity="0.1" d="M322.393 705.473C429.245 726.243 532.703 656.46 553.473 549.607C574.243 442.755 504.459 339.297 397.607 318.527C290.755 297.757 187.297 367.541 166.527 474.393C145.757 581.245 215.54 684.703 322.393 705.473Z" stroke="url(#paint10_linear_79_730)" stroke-width="5" stroke-linecap="round" stroke-dasharray="18 41"/>
<path opacity="0.42" d="M391.373 334.075C293.108 316.749 199.402 382.362 182.075 480.627C164.748 578.892 230.362 672.598 328.627 689.925C426.892 707.252 520.598 641.638 537.925 543.373C555.251 445.108 489.638 351.402 391.373 334.075Z" stroke="url(#paint11_linear_79_730)" stroke-width="4" stroke-linecap="round" stroke-dasharray="20 44"/>
<path opacity="0.59" d="M311.979 354.932C225.233 381.453 176.411 473.274 202.932 560.021C229.453 646.767 321.274 695.589 408.021 669.068C494.767 642.547 543.589 550.726 517.068 463.98C490.547 377.233 398.726 328.411 311.979 354.932Z" stroke="url(#paint12_linear_79_730)" stroke-width="4" stroke-linecap="round" stroke-dasharray="51 50"/>
<path opacity="0.18" d="M212.202 514.58C213.627 596.206 280.953 661.223 362.58 659.798C444.206 658.373 509.223 591.047 507.798 509.42C506.373 427.794 439.047 362.777 357.42 364.202C275.794 365.627 210.777 432.953 212.202 514.58Z" stroke="url(#paint13_linear_79_730)" stroke-width="4" stroke-linecap="round" stroke-dasharray="53 54"/>
<path opacity="0.3" d="M267.089 604.911C318.402 656.224 401.598 656.224 452.911 604.911C504.224 553.597 504.224 470.402 452.911 419.089C401.598 367.775 318.402 367.775 267.089 419.089C215.776 470.402 215.776 553.597 267.089 604.911Z" stroke="url(#paint14_linear_79_730)" stroke-width="4" stroke-linecap="round" stroke-dasharray="47 36"/>
<path opacity="0.25" d="M464.2 560.589C491.035 503.041 466.137 434.635 408.589 407.8C351.041 380.965 282.635 405.863 255.8 463.411C228.965 520.959 253.863 589.364 311.411 616.199C368.959 643.034 437.365 618.137 464.2 560.589Z" stroke="url(#paint15_linear_79_730)" stroke-width="3" stroke-linecap="round" stroke-dasharray="36 47"/>
<path opacity="0.98" d="M440.725 568.524C471.943 523.941 461.108 462.492 416.524 431.275C371.941 400.057 310.493 410.893 279.275 455.476C248.058 500.059 258.893 561.507 303.476 592.725C348.059 623.942 409.508 613.107 440.725 568.524Z" stroke="url(#paint16_linear_79_730)" stroke-width="3" stroke-linecap="round" stroke-dasharray="16 49"/>
<path opacity="0.72" d="M309.44 447.287C273.7 475.21 267.363 526.819 295.286 562.56C323.21 598.3 374.819 604.637 410.56 576.713C446.3 548.79 452.637 497.181 424.713 461.44C396.79 425.7 345.18 419.363 309.44 447.287Z" stroke="url(#paint17_linear_79_730)" stroke-width="3" stroke-linecap="round" stroke-dasharray="53 53"/>
<path opacity="0.83" d="M300.457 484.235C285.123 517.119 299.35 556.208 332.235 571.543C365.119 586.877 404.208 572.65 419.542 539.765C434.877 506.881 420.649 467.792 387.765 452.457C354.881 437.123 315.791 451.35 300.457 484.235Z" stroke="url(#paint18_linear_79_730)" stroke-width="2" stroke-linecap="round" stroke-dasharray="17 51"/>
<path opacity="0.6" d="M317.328 536.637C330.934 560.204 361.069 568.278 384.637 554.672C408.204 541.065 416.278 510.93 402.672 487.363C389.065 463.796 358.93 455.721 335.363 469.328C311.796 482.934 303.721 513.069 317.328 536.637Z" stroke="url(#paint19_linear_79_730)" stroke-width="2" stroke-linecap="round" stroke-dasharray="37 16"/>
<path opacity="0.41" d="M392.829 510.854C392.196 492.723 376.985 478.538 358.854 479.171C340.723 479.804 326.538 495.016 327.171 513.147C327.804 531.278 343.015 545.462 361.146 544.829C379.277 544.196 393.462 528.985 392.829 510.854Z" stroke="url(#paint20_linear_79_730)" stroke-width="2" stroke-linecap="round" stroke-dasharray="52 32"/>
<path opacity="0.35" d="M349.224 499.604C342.378 505.555 341.653 515.929 347.604 522.775C353.555 529.621 363.929 530.347 370.775 524.396C377.621 518.444 378.347 508.07 372.395 501.224C366.444 494.378 356.07 493.653 349.224 499.604Z" stroke="url(#paint21_linear_79_730)" stroke-width="2" stroke-linecap="round" stroke-dasharray="24 31"/>
<g filter="url(#filter0_f_79_730)">
<circle cx="360" cy="512" r="188" fill="#070707"/>
</g>
<path d="M271.672 499.952C272.593 498.506 273.865 497.339 275.486 496.45C277.108 495.56 279.006 495.116 281.181 495.116C283.724 495.116 286.028 495.764 288.092 497.061C290.156 498.358 291.777 500.211 292.957 502.62C294.173 505.029 294.781 507.826 294.781 511.013C294.781 514.2 294.173 517.017 292.957 519.462C291.777 521.871 290.156 523.743 288.092 525.077C286.028 526.374 283.724 527.022 281.181 527.022C279.043 527.022 277.145 526.578 275.486 525.688C273.865 524.799 272.593 523.65 271.672 522.242V537H262.218V495.56H271.672V499.952ZM285.161 511.013C285.161 508.642 284.498 506.789 283.171 505.455C281.881 504.084 280.278 503.398 278.361 503.398C276.482 503.398 274.878 504.084 273.551 505.455C272.261 506.826 271.616 508.697 271.616 511.069C271.616 513.441 272.261 515.312 273.551 516.683C274.878 518.054 276.482 518.74 278.361 518.74C280.241 518.74 281.844 518.054 283.171 516.683C284.498 515.275 285.161 513.385 285.161 511.013Z" fill="white"/>
<path d="M329.974 510.569C329.974 511.458 329.918 512.384 329.808 513.348H308.412C308.559 515.275 309.167 516.757 310.236 517.795C311.342 518.795 312.687 519.296 314.272 519.296C316.631 519.296 318.271 518.295 319.193 516.294H329.255C328.739 518.332 327.799 520.167 326.435 521.797C325.108 523.428 323.431 524.706 321.404 525.633C319.377 526.559 317.11 527.022 314.604 527.022C311.582 527.022 308.891 526.374 306.532 525.077C304.173 523.78 302.33 521.927 301.004 519.518C299.677 517.109 299.013 514.293 299.013 511.069C299.013 507.845 299.658 505.029 300.948 502.62C302.275 500.211 304.118 498.358 306.477 497.061C308.836 495.764 311.545 495.116 314.604 495.116C317.589 495.116 320.243 495.746 322.565 497.006C324.887 498.266 326.693 500.063 327.983 502.397C329.31 504.732 329.974 507.456 329.974 510.569ZM320.298 508.067C320.298 506.437 319.746 505.14 318.64 504.176C317.534 503.213 316.152 502.731 314.493 502.731C312.909 502.731 311.563 503.194 310.457 504.121C309.389 505.047 308.725 506.363 308.467 508.067H320.298Z" fill="white"/>
<path d="M354.91 495.227C358.522 495.227 361.397 496.413 363.535 498.784C365.71 501.119 366.797 504.343 366.797 508.456V526.578H357.398V509.735C357.398 507.66 356.864 506.048 355.795 504.899C354.726 503.75 353.289 503.176 351.482 503.176C349.676 503.176 348.239 503.75 347.17 504.899C346.101 506.048 345.567 507.66 345.567 509.735V526.578H336.113V495.56H345.567V499.674C346.525 498.303 347.815 497.228 349.437 496.45C351.059 495.634 352.883 495.227 354.91 495.227Z" fill="white"/>
<path d="M399.784 487.556V495.171H383.972V503.398H395.804V510.791H383.972V526.578H374.518V487.556H399.784Z" fill="white"/>
<path d="M415.359 487.556V526.578H405.905V487.556L415.359 487.556Z" fill="white"/>
<path d="M437.405 527.022C434.382 527.022 431.655 526.374 429.222 525.077C426.826 523.78 424.928 521.927 423.528 519.518C422.164 517.109 421.482 514.293 421.482 511.069C421.482 507.882 422.182 505.084 423.583 502.675C424.984 500.23 426.9 498.358 429.333 497.061C431.765 495.764 434.493 495.116 437.515 495.116C440.537 495.116 443.265 495.764 445.698 497.061C448.13 498.358 450.047 500.23 451.447 502.675C452.848 505.084 453.548 507.882 453.548 511.069C453.548 514.256 452.829 517.072 451.392 519.518C449.991 521.927 448.056 523.78 445.587 525.077C443.154 526.374 440.427 527.022 437.405 527.022ZM437.405 518.795C439.211 518.795 440.74 518.128 441.993 516.794C443.283 515.46 443.928 513.552 443.928 511.069C443.928 508.586 443.302 506.678 442.049 505.344C440.832 504.009 439.321 503.342 437.515 503.342C435.672 503.342 434.143 504.009 432.926 505.344C431.71 506.641 431.102 508.549 431.102 511.069C431.102 513.552 431.692 515.46 432.871 516.794C434.087 518.128 435.599 518.795 437.405 518.795Z" fill="white"/>
<path d="M504 495.56L495.652 526.578H485.203L480.337 506.455L475.306 526.578H464.912L456.509 495.56H465.963L470.331 517.739L475.527 495.56H485.534L490.787 517.628L495.099 495.56H504Z" fill="white"/>
<path d="M235.958 526.967C232.31 526.967 228.955 526.114 225.896 524.41C222.874 522.705 220.46 520.333 218.654 517.295C216.885 514.219 216 510.772 216 506.956C216 503.139 216.885 499.711 218.654 496.672C220.46 493.633 222.874 491.262 225.896 489.557C228.955 487.852 232.31 487 235.958 487C239.607 487 242.943 487.852 245.965 489.557C249.024 491.262 251.42 493.633 253.153 496.672C254.922 499.711 255.806 503.139 255.806 506.956C255.806 510.772 254.922 514.219 253.153 517.295C251.383 520.333 248.988 522.705 245.965 524.41C242.943 526.114 239.607 526.967 235.958 526.967Z" fill="#6E7CF9"/>
</g>
<defs>
<filter id="filter0_f_79_730" x="122" y="274" width="476" height="476" filterUnits="userSpaceOnUse" color-interpolation-filters="sRGB">
<feFlood flood-opacity="0" result="BackgroundImageFix"/>
<feBlend mode="normal" in="SourceGraphic" in2="BackgroundImageFix" result="shape"/>
<feGaussianBlur stdDeviation="25" result="effect1_foregroundBlur_79_730"/>
</filter>
<linearGradient id="paint0_linear_79_730" x1="38.0445" y1="347.956" x2="681.955" y2="676.045" gradientUnits="userSpaceOnUse">
<stop stop-color="#6E7CF9"/>
<stop offset="1" stop-color="#6E7CF9"/>
</linearGradient>
<linearGradient id="paint1_linear_79_730" x1="264.929" y1="180.447" x2="455.071" y2="843.553" gradientUnits="userSpaceOnUse">
<stop stop-color="#6E7CF9"/>
<stop offset="1" stop-color="#6E7CF9"/>
</linearGradient>
<linearGradient id="paint2_linear_79_730" x1="81.4243" y1="686.073" x2="638.575" y2="337.927" gradientUnits="userSpaceOnUse">
<stop stop-color="#6E7CF9"/>
<stop offset="1" stop-color="#6E7CF9"/>
</linearGradient>
<linearGradient id="paint3_linear_79_730" x1="72.7423" y1="390.066" x2="647.258" y2="633.934" gradientUnits="userSpaceOnUse">
<stop stop-color="#6E7CF9"/>
<stop offset="1" stop-color="#6E7CF9"/>
</linearGradient>
<linearGradient id="paint4_linear_79_730" x1="650.209" y1="568.411" x2="69.7905" y2="455.589" gradientUnits="userSpaceOnUse">
<stop stop-color="#6E7CF9"/>
<stop offset="1" stop-color="#6E7CF9"/>
</linearGradient>
<linearGradient id="paint5_linear_79_730" x1="207.928" y1="277.829" x2="512.072" y2="746.171" gradientUnits="userSpaceOnUse">
<stop stop-color="#6E7CF9"/>
<stop offset="1" stop-color="#6E7CF9"/>
</linearGradient>
<linearGradient id="paint6_linear_79_730" x1="248.939" y1="273.829" x2="471.06" y2="750.17" gradientUnits="userSpaceOnUse">
<stop stop-color="#6E7CF9"/>
<stop offset="1" stop-color="#6E7CF9"/>
</linearGradient>
<linearGradient id="paint7_linear_79_730" x1="604.531" y1="542.025" x2="115.469" y2="481.976" gradientUnits="userSpaceOnUse">
<stop stop-color="#6E7CF9"/>
<stop offset="1" stop-color="#6E7CF9"/>
</linearGradient>
<linearGradient id="paint8_linear_79_730" x1="145.33" y1="429.596" x2="574.67" y2="594.404" gradientUnits="userSpaceOnUse">
<stop stop-color="#6E7CF9"/>
<stop offset="1" stop-color="#6E7CF9"/>
</linearGradient>
<linearGradient id="paint9_linear_79_730" x1="290.485" y1="310.114" x2="429.515" y2="713.886" gradientUnits="userSpaceOnUse">
<stop stop-color="#6E7CF9"/>
<stop offset="1" stop-color="#6E7CF9"/>
</linearGradient>
<linearGradient id="paint10_linear_79_730" x1="397.607" y1="318.527" x2="322.393" y2="705.473" gradientUnits="userSpaceOnUse">
<stop stop-color="#6E7CF9"/>
<stop offset="1" stop-color="#6E7CF9"/>
</linearGradient>
<linearGradient id="paint11_linear_79_730" x1="328.627" y1="689.925" x2="391.373" y2="334.075" gradientUnits="userSpaceOnUse">
<stop stop-color="#6E7CF9"/>
<stop offset="1" stop-color="#6E7CF9"/>
</linearGradient>
<linearGradient id="paint12_linear_79_730" x1="408.021" y1="669.068" x2="311.979" y2="354.932" gradientUnits="userSpaceOnUse">
<stop stop-color="#6E7CF9"/>
<stop offset="1" stop-color="#6E7CF9"/>
</linearGradient>
<linearGradient id="paint13_linear_79_730" x1="507.798" y1="509.42" x2="212.202" y2="514.58" gradientUnits="userSpaceOnUse">
<stop stop-color="#6E7CF9"/>
<stop offset="1" stop-color="#6E7CF9"/>
</linearGradient>
<linearGradient id="paint14_linear_79_730" x1="452.911" y1="419.089" x2="267.089" y2="604.911" gradientUnits="userSpaceOnUse">
<stop stop-color="#6E7CF9"/>
<stop offset="1" stop-color="#6E7CF9"/>
</linearGradient>
<linearGradient id="paint15_linear_79_730" x1="255.8" y1="463.411" x2="464.2" y2="560.589" gradientUnits="userSpaceOnUse">
<stop stop-color="#6E7CF9"/>
<stop offset="1" stop-color="#6E7CF9"/>
</linearGradient>
<linearGradient id="paint16_linear_79_730" x1="279.275" y1="455.476" x2="440.725" y2="568.524" gradientUnits="userSpaceOnUse">
<stop stop-color="#6E7CF9"/>
<stop offset="1" stop-color="#6E7CF9"/>
</linearGradient>
<linearGradient id="paint17_linear_79_730" x1="410.56" y1="576.713" x2="309.44" y2="447.287" gradientUnits="userSpaceOnUse">
<stop stop-color="#6E7CF9"/>
<stop offset="1" stop-color="#6E7CF9"/>
</linearGradient>
<linearGradient id="paint18_linear_79_730" x1="419.542" y1="539.765" x2="300.457" y2="484.235" gradientUnits="userSpaceOnUse">
<stop stop-color="#6E7CF9"/>
<stop offset="1" stop-color="#6E7CF9"/>
</linearGradient>
<linearGradient id="paint19_linear_79_730" x1="402.672" y1="487.363" x2="317.328" y2="536.637" gradientUnits="userSpaceOnUse">
<stop stop-color="#6E7CF9"/>
<stop offset="1" stop-color="#6E7CF9"/>
</linearGradient>
<linearGradient id="paint20_linear_79_730" x1="327.171" y1="513.147" x2="392.829" y2="510.854" gradientUnits="userSpaceOnUse">
<stop stop-color="#6E7CF9"/>
<stop offset="1" stop-color="#6E7CF9"/>
</linearGradient>
<linearGradient id="paint21_linear_79_730" x1="370.775" y1="524.396" x2="349.224" y2="499.604" gradientUnits="userSpaceOnUse">
<stop stop-color="#6E7CF9"/>
<stop offset="1" stop-color="#6E7CF9"/>
</linearGradient>
<clipPath id="clip0_79_730">
<rect width="720" height="1024" fill="white"/>
</clipPath>
</defs>
</svg>
