<svg width="33" height="33" viewBox="0 0 33 33" fill="none" xmlns="http://www.w3.org/2000/svg">
<path d="M16.2855 32.7726C13.3081 32.7726 10.5713 32.0737 8.07509 30.6759C5.60895 29.2781 3.63905 27.3333 2.16539 24.8416C0.721795 22.3194 0 19.4934 0 16.3635C0 13.2336 0.721795 10.4228 2.16539 7.93107C3.63905 5.43931 5.60895 3.49453 8.07509 2.09672C10.5713 0.698907 13.3081 0 16.2855 0C19.2629 0 21.9847 0.698907 24.4508 2.09672C26.947 3.49453 28.9019 5.43931 30.3154 7.93107C31.759 10.4228 32.4808 13.2336 32.4808 16.3635C32.4808 19.4934 31.759 22.3194 30.3154 24.8416C28.8718 27.3333 26.917 29.2781 24.4508 30.6759C21.9847 32.0737 19.2629 32.7726 16.2855 32.7726Z" fill="#6E7CF9"/>
<path d="M7.42 19.807L3.969 16.05L7.42 12.293H11.075L7.607 16.05L11.075 19.807H7.42ZM19.8943 5.85L15.3383 25.179H12.5333L17.0893 5.85H19.8943ZM21.1374 12.293H24.7924L28.2434 16.05L24.7924 19.807H21.1374L24.6054 16.05L21.1374 12.293Z" fill="white"/>
</svg>
